<svg xmlns="http://www.w3.org/2000/svg" width="128" height="128" viewBox="0 0 128 128">
  <title>SCRATCHER</title>
  <path d="M101.573,63.106a1.75,1.75,0,0,0,1.75-1.75V39.21a6.709,6.709,0,0,0-3.088-5.642V26.8c0-.02.006-.038.006-.058V23.526A12.49,12.49,0,0,0,87.766,11.05H40.08A12.49,12.49,0,0,0,27.6,23.526v3.211a1.751,1.751,0,0,0,1.75,1.75H53.02V36.15h-4.9a5.747,5.747,0,0,0-4.127,9.76,5.74,5.74,0,0,0,0,8.019,5.73,5.73,0,0,0,0,8.011,5.74,5.74,0,0,0,0,8.02,5.73,5.73,0,0,0,0,8.011,5.74,5.74,0,0,0,0,8.019,5.754,5.754,0,0,0,4.127,9.77h4.9v7.655H30.451a5.78,5.78,0,0,0-5.774,5.774v1.987a5.78,5.78,0,0,0,5.774,5.774h67.1a5.781,5.781,0,0,0,5.774-5.774v-1.987a5.781,5.781,0,0,0-5.774-5.774H74.83V95.76h4.9a5.756,5.756,0,0,0,4.12-9.77,5.748,5.748,0,0,0,0-8.019,5.738,5.738,0,0,0,0-8.011,5.748,5.748,0,0,0,0-8.02,5.738,5.738,0,0,0,0-8.011,5.748,5.748,0,0,0,0-8.019,5.749,5.749,0,0,0-4.12-9.76h-4.9V28.487H96.735V32.5c-.042,0-.083-.007-.126-.007a6.723,6.723,0,0,0-6.715,6.714V51.833a1.75,1.75,0,0,0,3.5,0V45.1a6.7,6.7,0,0,0,6.429,0V61.356A1.75,1.75,0,0,0,101.573,63.106ZM31.1,23.526A8.986,8.986,0,0,1,40.08,14.55H87.766a8.986,8.986,0,0,1,8.975,8.976v1.461H31.1ZM79.73,47.66a2.26,2.26,0,0,1,0,4.52H48.12a2.26,2.26,0,0,1,0-4.52Zm2.25,10.27a2.257,2.257,0,0,1-2.25,2.26H48.12a2.255,2.255,0,1,1,0-4.51H79.73A2.253,2.253,0,0,1,81.98,57.93Zm0,8.02a2.257,2.257,0,0,1-2.25,2.26H48.12a2.26,2.26,0,0,1,0-4.52H79.73A2.257,2.257,0,0,1,81.98,65.95Zm0,8.02a2.253,2.253,0,0,1-2.25,2.25H48.12a2.255,2.255,0,1,1,0-4.51H79.73A2.257,2.257,0,0,1,81.98,73.97Zm0,8.01a2.257,2.257,0,0,1-2.25,2.26H48.12a2.26,2.26,0,1,1,0-4.52H79.73A2.257,2.257,0,0,1,81.98,81.98Zm17.843,27.209v1.987a2.276,2.276,0,0,1-2.274,2.274h-67.1a2.276,2.276,0,0,1-2.274-2.274v-1.987a2.276,2.276,0,0,1,2.274-2.274h67.1A2.276,2.276,0,0,1,99.823,109.189ZM71.33,103.415H56.52V95.76H71.33Zm8.4-11.155H48.12a2.26,2.26,0,1,1,0-4.52H79.73a2.26,2.26,0,0,1,0,4.52ZM81.98,41.9a2.257,2.257,0,0,1-2.25,2.26H48.12a2.255,2.255,0,1,1,0-4.51H79.73A2.252,2.252,0,0,1,81.98,41.9ZM71.33,36.15H56.52V28.487H71.33Zm25.279,6.275a3.215,3.215,0,1,1,3.214-3.215A3.219,3.219,0,0,1,96.609,42.425Z"/>
</svg>
