<svg xmlns="http://www.w3.org/2000/svg" viewBox="0 0 64 64"><title>fast delivery</title><g id="fast_delivery" data-name="fast delivery"><path d="M59.18,24.83,55.15,49H28a1,1,0,0,0,0,2H56a1,1,0,0,0,1-.84l4.17-25A1,1,0,0,0,59.18,24.83Z"/><path d="M62.76,13.35C62.29,12.8,65.57,13,15,13a1,1,0,0,0,0,2h3.82l-.5,3H7a1,1,0,0,0,0,2H18a1,1,0,0,0,2,.16c0-.23-1-.16,10-.16a1,1,0,0,0,0-2H20.35l.5-3H35.67c-1.78,6.25-1.87,6.07-1.47,6.6s.15.4,10.8.4a1,1,0,0,0,1-.73L47.75,15H60.82l-1,6a1,1,0,0,0,2,.33C63.06,13.72,63.18,13.85,62.76,13.35ZM44.25,20H36.33l1.42-5h7.92Z"/><path d="M2,49a1,1,0,0,0,0,2A1,1,0,0,0,2,49Z"/><path d="M24,30H18.35l1-5.95a1,1,0,0,0-2-.32l-1,6.27H12a1,1,0,0,0,0,2h4l-.66,4H8a1,1,0,0,0,0,2h7L13.15,49H6a1,1,0,0,0,0,2H19a1,1,0,0,0,0-2H15.18L17,38h3a1,1,0,0,0,0-2H17.35L18,32h6A1,1,0,0,0,24,30Z"/><path d="M4,36a1,1,0,0,0,0,2A1,1,0,0,0,4,36Z"/><path d="M3,20a1,1,0,0,0,0-2A1,1,0,0,0,3,20Z"/><path d="M43,46h8a1,1,0,0,0,0-2H43A1,1,0,0,0,43,46Z"/><path d="M52,41a1,1,0,0,0,0-2H44a1,1,0,0,0,0,2Z"/><path d="M24,49H23a1,1,0,0,0,0,2h1A1,1,0,0,0,24,49Z"/></g></svg>