<svg xmlns="http://www.w3.org/2000/svg" width="128" height="128" viewBox="0 0 128 128">
  <title>REWARD</title>
  <g>
    <path d="M104.54,55.52V47.58h2.58a1.749,1.749,0,0,0,1.75-1.75V30.5a1.749,1.749,0,0,0-1.75-1.75h-6.1a15.424,15.424,0,0,0-1.062-10.41,12.494,12.494,0,0,0-8.226-6.706C83,9.42,75.327,16.494,70.926,21.9a10.992,10.992,0,0,0-13.852,0c-4.4-5.4-12.068-12.474-20.8-10.262a12.493,12.493,0,0,0-8.225,6.7A15.432,15.432,0,0,0,26.983,28.75h-6.1a1.75,1.75,0,0,0-1.75,1.75V45.83a1.75,1.75,0,0,0,1.75,1.75h2.58V115.2a1.75,1.75,0,0,0,1.75,1.75h77.58a1.749,1.749,0,0,0,1.75-1.75v-6.252a1.913,1.913,0,0,0,2.212.512,1.75,1.75,0,0,0,1-1.58V86.424a17.638,17.638,0,0,0,7.83-14.558v0A17.592,17.592,0,0,0,104.54,55.52Zm.83-11.44H78.208V32.25H105.37Zm-52.079,0V32.25H74.708V44.08Zm16.917,3.5v65.87H57.791V47.58ZM90.87,15.026a8.956,8.956,0,0,1,5.947,4.864,12.132,12.132,0,0,1,.58,8.86H74.913A11,11,0,0,0,73.3,24.533C77.075,19.779,83.763,13.224,90.87,15.026ZM64,22.94a7.571,7.571,0,0,1,7.353,5.81H56.647A7.569,7.569,0,0,1,64,22.94ZM31.183,19.889a8.958,8.958,0,0,1,5.947-4.863c7.109-1.8,13.8,4.754,17.573,9.508a11,11,0,0,0-1.617,4.216H30.6A12.135,12.135,0,0,1,31.183,19.889ZM22.63,32.25H49.791V44.08H22.63Zm4.33,15.33H54.291v65.87H26.96Zm74.08,65.87H73.708V47.58H101.04v6.949a17.484,17.484,0,0,0-2.977-.279h-.04a17.555,17.555,0,0,0-9.754,32.163V107.88a1.75,1.75,0,0,0,2.855,1.357l6.886-5.6,3.03,2.465Zm-1.926-13.428a1.751,1.751,0,0,0-2.209,0L91.769,104.2V88.213a17.613,17.613,0,0,0,6.195,1.157h.058a17.549,17.549,0,0,0,6.228-1.152V104.2Zm6-16.073a14.063,14.063,0,1,1-7.094-26.2h.033a14.061,14.061,0,0,1,7.061,26.2Z"/>
    <path d="M98.01,70.41a5.738,5.738,0,1,0,5.737,5.738A5.745,5.745,0,0,0,98.01,70.41Zm0,7.976a2.238,2.238,0,1,1,2.237-2.238A2.241,2.241,0,0,1,98.01,78.386Z"/>
    <path d="M98.009,66.845a1.75,1.75,0,1,0-1.75-1.75A1.75,1.75,0,0,0,98.009,66.845Z"/>
    <path d="M90.125,66.211a1.75,1.75,0,1,0,1.75,1.75A1.751,1.751,0,0,0,90.125,66.211Z"/>
    <path d="M105.893,66.211a1.75,1.75,0,1,0,1.75,1.75A1.751,1.751,0,0,0,105.893,66.211Z"/>
  </g>
</svg>
